<svg width="60" height="60" fill="none" xmlns="http://www.w3.org/2000/svg"><path d="M26.1 19.96c.3-.14.44-.43 0-.72a5.35 5.35 0 0 1-1.73-3.61A5.94 5.94 0 0 1 30 10c2.75 0 5.06 2.74 5.06 5.05 0 1.74-1.01 3.18-2.46 4.19-.29.29-.14.43.3.58 2.73 1 5.33 3.03 5.33 6.5 0 3.03-1.3 5.05-3.32 6.2-.29.15-.29.58 0 .72a15.22 15.22 0 0 1 8.38 13.43c0 2.16-.3 3.46-.87 4.33H16.87c-.58-1.01-.87-2.31-.87-4.33 0-5.05 2.74-10.68 8.08-13.28.3-.15.44-.58-.14-.87a6.62 6.62 0 0 1-2.74-5.48c0-3.76 2.45-5.78 4.9-7.08Z" fill="#000"/><path fill-rule="evenodd" clip-rule="evenodd" d="M25.23 20.46c-2.13 1.3-4.03 3.27-4.03 6.58 0 2.15.89 3.86 2.18 5.02l.08.08.03.02c.14.13.3.25.45.36.58.29.43.72.14.87a13.71 13.71 0 0 0-.85.45C18.45 36.6 16 41.9 16 46.67c0 2.02.29 3.32.87 4.33h25.55c.58-.87.87-2.17.87-4.33 0-5.04-2.7-10.07-7.49-12.93l-.01-.01a16.15 16.15 0 0 0-.88-.49c-.29-.14-.29-.57 0-.72.18-.1.36-.21.53-.33l.02-.02.26-.19c1.56-1.2 2.51-3.07 2.51-5.67 0-3.07-2.04-5-4.4-6.1l-.07-.03a11.85 11.85 0 0 0-.87-.36c-.43-.15-.58-.3-.29-.58a7.25 7.25 0 0 0 .94-.78 4.78 4.78 0 0 0 1.52-3.4c0-2.32-2.31-5.06-5.06-5.06a5.94 5.94 0 0 0-5.63 5.63c0 1.3.73 2.6 1.74 3.6.43.3.28.59 0 .73a16.06 16.06 0 0 0-.88.5Zm9.75-1.35a6.13 6.13 0 0 0 1.58-4.06c0-1.62-.8-3.23-1.91-4.42A6.48 6.48 0 0 0 30 8.5c-1.91 0-3.68.9-4.95 2.17a7.13 7.13 0 0 0-2.18 4.96 6.3 6.3 0 0 0 1.34 3.7c-2.28 1.47-4.51 3.8-4.51 7.7 0 2.4.92 4.38 2.3 5.8-4.99 3.13-7.5 8.77-7.5 13.84 0 2.15.3 3.75 1.06 5.07l.44.76h27.22l.45-.67c.83-1.25 1.12-2.92 1.12-5.16 0-5.37-2.78-10.71-7.69-13.9 1.66-1.49 2.63-3.66 2.63-6.46 0-3.63-2.28-5.9-4.75-7.2Z" fill="#BDA581" fill-opacity=".75"/></svg>