<svg width="60" height="60" fill="none" xmlns="http://www.w3.org/2000/svg"><path d="m41.22 21.2-.96.74V36.1l2.27 2.83c.6.74.71.87.71 1.48v4.68l.72.12c.6.13 1.07.62 1.07 1.36V51H14v-4.3c0-.75.36-1.24.95-1.36l.72-.13v-4.68c0-.61.12-.73.72-1.47l2.27-2.83V21.94l-.96-.74c-.95-.73-2.75-1.97-2.75-2.58v-5.3c0-1.47 3.59-2.21 5.5-2.58v3.7c1.67-.25 3.46-.5 5.25-.5v-3.82c.95 0 2.15-.12 3.82-.12s2.74 0 3.82.12v3.82c1.79 0 3.58.25 5.25.5v-3.7c2.03.37 5.49 1.1 5.49 2.58v5.3c0 .61-1.8 1.85-2.86 2.58Zm1.9 25.37H15.91c-.36 0-.48.12-.48.49v.98H43.6v-.98c0-.37-.12-.5-.48-.5Zm-13.6-28.94c4.53 0 9.07.5 11.93 1.23.24-.12.72-.49.84-.73.12-.25.12-.37-.12-.5-.72-.37-2.15-.74-3.34-.86-2.5-.37-5.5-.61-9.43-.61-3.58 0-6.93.24-9.55.61-1.08.12-2.39.5-3.1.86-.24.13-.24.25-.12.5.12.24.6.61.83.73 3.1-.73 7.4-1.23 12.06-1.23ZM18.18 39.8c-.36 0-.6.12-.6.61v.99h24v-.99c0-.37-.13-.61-.6-.61h-22.8Zm2.03-3.08-1.08 1.35h20.9l-1.08-1.35H20.2ZM38.95 22.8v-1.47c-2.63-.5-6.09-.74-9.43-.74-3.23 0-7.05.12-9.43.74v1.47c2.27-.36 5.85-.61 9.43-.61 3.34 0 6.44.12 9.43.61Z" fill="#000"/><path fill-rule="evenodd" clip-rule="evenodd" d="M40.09 11.04c1.89.43 3.99 1.13 3.99 2.28v5.3c0 .61-1.8 1.85-2.86 2.58l-.96.74V36.1l2.27 2.83.06.09a36.14 36.14 0 0 1 .43.55c.18.27.22.46.22.84v4.68l.72.12a1.32 1.32 0 0 1 1.07 1.36V51H14v-4.3c0-.11 0-.22.02-.31.07-.48.32-.82.7-.98.08-.03.15-.06.23-.07l.72-.13v-4.68c0-.59.11-.72.65-1.4l.07-.07 2.27-2.83V21.94l-.96-.74-.5-.37c-.97-.73-2.25-1.7-2.25-2.21v-5.3c0-1.14 2.14-1.84 4-2.27.54-.12 1.06-.23 1.5-.31v3.7l1.5-.22c1.22-.16 2.48-.28 3.75-.28v-3.82c.4 0 .86-.02 1.38-.05.69-.03 1.49-.07 2.44-.07 1.67 0 2.74 0 3.82.12v3.82c1.26 0 2.53.12 3.75.28l1.5.21v-3.7l1.5.31Zm-3 1.67V8.94l1.77.32c1.01.19 2.5.48 3.76.95.62.23 1.28.54 1.82.96a2.76 2.76 0 0 1 1.14 2.15v5.3c0 .42-.15.76-.26.97-.12.22-.27.42-.4.57-.27.3-.6.6-.92.87-.62.5-1.38 1.03-1.9 1.39l-.34.26v12.9l1.94 2.41.08.1c.22.28.49.6.66.93.26.5.3.97.3 1.4v3.47a2.82 2.82 0 0 1 1.8 2.68v5.93H12.5v-5.8c0-.62.15-1.25.53-1.79.3-.41.7-.71 1.14-.9v-3.48c0-.42.04-.88.3-1.38.18-.33.44-.66.67-.93l.08-.1 1.94-2.42V22.68l-.38-.29-.43-.33c-.41-.3-.92-.7-1.35-1.05-.3-.25-.63-.55-.89-.86a3.27 3.27 0 0 1-.4-.56c-.1-.2-.26-.55-.26-.97v-5.3c0-1.03.64-1.75 1.18-2.16a6.95 6.95 0 0 1 1.84-.95c1.26-.47 2.75-.76 3.7-.94l1.78-.35v3.79c.73-.1 1.48-.17 2.25-.22V8.62h1.5c.37 0 .78-.02 1.3-.04l.27-.02c.63-.03 1.37-.06 2.25-.06h.07c1.6 0 2.76 0 3.92.13l1.33.16v3.7c.76.05 1.52.13 2.25.22ZM15.48 46.77a.76.76 0 0 0-.05.29v.98H43.6v-.98a.64.64 0 0 0-.07-.34.27.27 0 0 0-.06-.07c-.07-.06-.19-.08-.34-.08H15.9c-.21 0-.34.04-.41.15l-.02.05Zm25.9-6.87a.7.7 0 0 0-.4-.1h-22.8c-.17 0-.3.02-.4.1-.13.09-.2.24-.2.51v.99h24v-.99a.87.87 0 0 0-.06-.34.4.4 0 0 0-.14-.17Zm-1.36-1.83-1.07-1.35H20.2l-1.08 1.35h20.9ZM38.76 21.3c-.53-.1-1.1-.18-1.68-.26-2.3-.3-4.97-.44-7.56-.44-3.03 0-6.58.1-8.98.63l-.38.09-.07.02v1.47h.07a25.82 25.82 0 0 1 1.43-.2c2.2-.25 5.06-.41 7.93-.41a67.1 67.1 0 0 1 7.93.4 38.57 38.57 0 0 1 1.5.21v-1.47l-.19-.04Zm.07-4.52c-1.5-.22-3.15-.4-5.07-.5a78.36 78.36 0 0 0-4.24-.11h-.12c-1.32 0-2.61.03-3.85.1-2.1.1-4.04.28-5.7.51a11.5 11.5 0 0 0-3.1.86c-.24.13-.24.25-.12.5a2.32 2.32 0 0 0 .83.73 26.65 26.65 0 0 1 .47-.1 50.3 50.3 0 0 1 7.7-1.01 65.4 65.4 0 0 1 3.77-.12h.12c1.4 0 2.8.05 4.15.14a47.37 47.37 0 0 1 7.78 1.1l.12-.07c.25-.16.62-.46.72-.67.12-.25.12-.37-.12-.5a4.24 4.24 0 0 0-.94-.36c-.72-.23-1.62-.42-2.4-.5Z" fill="#BDA581" fill-opacity=".75"/></svg>