<svg width="60" height="60" fill="none" xmlns="http://www.w3.org/2000/svg"><path fill-rule="evenodd" clip-rule="evenodd" d="M22.71 51H49.3c.28-1.33.71-3.83.71-7.37 0-15.64-9.43-27.73-20-29.35l-.71-.15-.15-.74A7.08 7.08 0 0 0 27 10c-.71.59-1.86 1.77-2.14 4.28V15a10.31 10.31 0 0 0-3.29 1.92l-.28-.2c.42-.74 1.92-1.44 2.21-1.73-.14-.59-2.36-2.64-3.07-3.08a5.58 5.58 0 0 0-2.86-1.04v2.22c0 1.91.43 3.24.72 4.42-1.43 1.03-2.29 2.95-2.58 3.84-.85 2.5-.71 3.83-1.57 5.3C11.86 30.5 10 33.02 10 34.79c0 2.8.43 4.86 2.57 4.86.57 0 1.43 0 2.14-.3 0 .75.72 1.34 1.29 1.34 1.86 0 2.14-3.99 4.29-5.31 4.57-3.25 10.85-3.54 10.85-11.21h.36c0 3.83-.71 5.22-2 6.84.43 7.23-4.21 9.84-6.79 15-1 1.77 0 4.26 0 5Z" fill="#F9F1E4"/><path d="M50.47 51H19.8c-.13-1.9-.13-4.2 1.47-7.18 2-3.8 6.53-5.83 6.8-11.25-1.6 1.09-3.34 1.77-4.94 2.71-2.8 1.63-2.8 5.83-6.4 6.24-1.33.13-2.13-.41-2.53-1.09h-.67c-2.8 0-4.53-2.17-4.53-6.64 0-1.9 1.87-4.47 4.4-8.53.8-1.22.4-2.44 1.33-4.6.4-1.1 1.2-2.04 2.27-3.26-.13-.68-.4-1.63-.4-2.98 0-1.5 0-3.12.67-4.6 0 0 2.66-.14 4.8 1.62.66.54 1.2 1.08 1.6 1.49C24.73 10.76 26.6 9.27 27.4 9c.8.54 2.8 2.3 3.6 4.74 10.8 2.03 20 13.82 20 29 0 4.6-.27 7.31-.53 8.26Zm-27.6-2.17h24.8c.26-1.22.66-3.52.66-6.77 0-14.36-8.8-25.47-18.66-26.96l-.67-.14-.13-.68a6.5 6.5 0 0 0-2-3.11 5.54 5.54 0 0 0-2 3.93v.67a9.66 9.66 0 0 0-3.07 1.77l-.67-.82c.4-.67 1.2-1.49 1.47-1.76-.13-.54-1.2-1.62-1.87-2.03-1.06-.68-2-.95-2.66-.95v2.03c0 1.76.4 2.98.66 4.07a7.56 7.56 0 0 0-2.4 3.52c-.8 2.3-.66 3.52-1.46 4.88C12.73 30 11 32.3 11 33.93c0 2.57.4 4.47 2.4 4.47.53 0 1.33 0 2-.27 0 .68.67 1.22 1.2 1.22 1.73 0 2-3.66 4-4.88 4.27-2.98 10.13-3.25 10.13-10.3h1.34c0 3.53-.94 5.56-2.14 7.05.4 6.64-3.73 8.8-6.13 13.55-.93 1.62-.93 3.38-.93 4.06Zm-7.2-14.36c0 .54-.8.54-.8 1.08 0 .55-.54 1.09-1.07 1.09-.4 0-.8-.4-.8-1.09 0-.67.67-2.43 1.6-2.43s1.07.8 1.07 1.35Zm6.13-13.95c.67 0 .67.54.67.8 0 .55-.94.14-.94.96 0 .54.54 1.35-.66 1.9-1.2.54-1.6 0-1.74.54 0 .13-.53.54-.93.54s-.67-.4-.67-.81a4.57 4.57 0 0 1 4.27-3.93Z" fill="#332007"/></svg>