<svg width="60" height="60" fill="none" xmlns="http://www.w3.org/2000/svg"><path d="M30.4 9c1.7 0 3 1.7 3 3 0 1.4-1 2.4-2.4 2.9.7 1 2.4 1.7 4.2 2.7 4 2.3 7.4 4.7 7.4 9 0 3.8-1.4 5.3-2.8 6.6-.6.6-.2 4.2-.2 7 0 1.6-3 2.4-6.3 2.8.3.7 1 1.3 2.5 1.3l7.6-.1c5 0 7.6 2.7 7.6 2.7L48.3 51s-3.1-2.5-10.6-2.5c-4.2 0-7.2-1.9-7.6-3.4-.4 1.5-2.8 3.4-7.5 3.4-6.8 0-10.9 2.5-10.9 2.5L9 46.9s2.6-2.7 7.3-2.7h8c1.5 0 2.2-.6 2.5-1.2-3.4-.4-6.3-1.2-6.3-2.7 0-2.4.4-6.3-.3-7-1-1-2.8-2.6-2.8-6.6 0-5.3 5-7.6 8-9.4 1.3-.7 2.8-1.5 3.5-2.3-1.2-.5-2.2-1.5-2.2-2.7.3-1.5 2-3.3 3.7-3.3Z" fill="#F9F1E4"/><path d="M30.6 8c2 0 3.9 1.9 3.9 3.6 0 1.4-1 2.6-2.1 3.3.4.6 1.7 1.4 3 2.1 3.5 2 7.8 4.3 7.8 9.8 0 4.3-1.8 5.7-2.8 6.8-.5.6-.2 4.8-.2 6.8 0 1.4-2.5 2.5-6 3 .6.4 1.2.4 2 .4 1.8 0 3.6-1.2 7-1 5.6 0 8.4 2.7 9.3 3.5L48.8 52c-1.1-.7-4.9-2.8-9.9-2.8-4.4 0-7.6-.7-8.7-2.3-1 1.6-4.3 2.3-8.7 2.3a19 19 0 0 0-9.7 2.8L8 46.3c1-.8 3.8-3.6 9.3-3.6 3.5 0 5.2 1 6.8 1 .9 0 1.5 0 2-.3-3.7-.4-5.7-1.6-5.7-3 0-2 .4-6.2-.3-6.8-1-1.1-2.8-2.5-2.8-6.8 0-5.5 4.3-7.6 8-9.8 1.1-.7 2.7-1.6 2.9-2.1-1.1-.7-1.8-1.8-1.8-3-.1-2 2-3.9 4.2-3.9Zm8 38.9c4.5 0 7.7 1.3 9.4 2l1.4-2.4c-1-.8-3.3-2-6.3-2s-5.1.6-6.8.6c-2.3 0-3.7-.6-4.4-1.7h-3.6c-.7 1-2.1 1.7-4.6 1.7-1.6 0-3.5-.6-6.7-.6-3 0-5.2 1.2-6.4 2l1.6 2.4a20 20 0 0 1 9.3-2c3.9 0 7-.4 8.3-2h.4c1.3 1.7 4.2 2 8.3 2ZM21.8 34.4c1.8-1.1 5-1.6 8.2-1.6 3.3 0 6.2.6 8.2 1.6 0-.8.2-1.6.4-2 .8-1 2.3-2.2 2.3-5.6 0-4.5-4.5-6.8-7-8.4-1.4-1-3.8-2.3-4-2.9 0 .6-2.4 2-3.8 2.9-2.6 1.6-7 3.7-7 8.4 0 3.4 1.4 4.7 2.3 5.7.2.3.4 1 .4 1.9Zm0 1.7v2.2c1.4-1 4.4-1.6 8.2-1.6 3.7 0 6.6.6 8 1.4v-2c-2.3-1-4.8-1.3-8-1.3-3.4 0-6 .4-8.1 1.3Zm8.3 5.8c2.2 0 8-.3 8-1.6 0-1-4.1-1.6-8-1.6-3.6 0-8 .7-8 1.6-.2 1.3 5.2 1.6 8 1.6Zm-1.3-15.6h-3.3v-2.4H29v-3.1h2.5v3h3.2v2.5h-3.2v3.2H29v-3.2Zm1.3-12.8c1 0 2-.8 2-1.9 0-.6-.7-1.7-1.6-1.7-1 0-2 1-2 2 0 .7.8 1.6 1.6 1.6Z" fill="#332007"/></svg>