<svg width="60" height="60" fill="none" xmlns="http://www.w3.org/2000/svg"><path d="M26.6 20.7c.3-.1.4-.4 0-.7-1-1-1.6-2.2-1.6-3.5 0-2.8 2.6-5.5 5.3-5.5 2.7 0 4.9 2.7 4.9 5a5 5 0 0 1-2.4 4c-.3.3-.1.4.3.6 2.6 1 5 3 5 6.3 0 3-1.2 5-3 6-.4.2-.4.6 0 .8 5 2.7 7.9 7.9 7.9 13 0 2.2-.3 3.5-.8 4.3H17.8c-.5-1-.8-2.3-.8-4.2 0-5 2.6-10.4 7.7-13 .3-.1.4-.5-.1-.8a6.5 6.5 0 0 1-2.6-5.4c0-3.6 2.3-5.6 4.6-6.9Z" fill="#F9F1E4"/><path d="M26.1 19.7a4.4 4.4 0 0 1-1.7-3.7 6 6 0 0 1 6-6 5.5 5.5 0 0 1 3.6 9.7c3 1.2 5.3 3.6 5.3 7.2 0 2.7-1.2 4.5-3.2 6 5.6 2.4 8.2 7.8 8.2 12.7 0 2.4-.4 4-1.4 5.4H17.3c-1-1.7-1.3-3-1.3-5.4 0-4.9 2.7-10.7 8-12.7a7 7 0 0 1-3-5.6c0-3.7 2-6.3 5.1-7.6ZM27 33v.5c-5.3 2-8.5 7.5-8.5 12.2 0 1.3.3 2.3.6 3.1h22.3c.3-.7.6-1.7.6-3.1 0-5.6-4-10.9-8.9-12.2V33c3-1.5 4-3.8 4-6 0-3.2-1.9-5.8-5.6-6.8v-.4A4.2 4.2 0 0 0 34 16c0-2.5-1.6-3.9-3.6-3.9a4 4 0 0 0-4 4.1c0 1.3.7 2.8 1.9 3.6v.6C25 21.6 23 24 23 27.3a6.8 6.8 0 0 0 3.8 5.6Z" fill="#332007"/></svg>