<svg width="60" height="60" fill="none" xmlns="http://www.w3.org/2000/svg"><path d="M18.453 17.4c-.119-.618-.476-1.853-.476-3.953 0-1.606 0-2.347.119-3.459l.119-.247s2.143-.123 3.81 1.359c1.429 1.112 2.262 2.347 2.62 2.841h.118C25.24 10.976 27.621 9 27.621 9h.476s1.905 1.976 2.5 4.57c10.597 1.483 19.645 13.218 19.645 28.536 0 5.435-.476 8.894-.476 8.894H21.55s-.12-2.1.476-4.077c1.905-5.929 7.739-8.894 7.739-14.452 0-.494-.238-.618-.476-.618-.238 1.482-5 2.594-7.144 4.447-2.143 1.853-2.857 5.435-4.881 5.435-.715 0-1.548-.617-1.548-1.358-.476 0-.953.123-1.548.123-2.381 0-4.167-2.594-4.167-6.053 0-1.976 1.786-4.818 4.286-9.018.833-1.358.595-2.717 1.429-4.94.833-.866 1.667-1.977 2.738-3.089Zm-5.358 18.159c0 .741.357 1.112.715 1.112.476 0 .952-.618.952-1.112 0-.494.834-.618.834-1.112 0-.494 0-1.359-.953-1.359-.952 0-1.548 1.606-1.548 2.47Zm3.096 2.223c0 .618.238.865.952.865.596 0 .953-.865.953-1.359s-.357-.74-.714-.74c-.358 0-1.191.617-1.191 1.234Zm2.857-13.094c.358 0 .834-.37.834-.617.119-.618.595 0 1.667-.618 1.071-.494.595-1.359.595-1.853 0-.741.834-.494.834-.988 0-.247 0-.741-.715-.741-2.024 0-3.929 1.729-3.929 3.953.12.494.476.864.714.864Zm3.453-5.93s.953-.74 2.739-1.358c-.12-.247-.238-.741-.358-1.235-1.905.74-3.095 1.73-3.095 1.606l.714.988Zm8.692 7.042c-.12 1.606-.715 3.088-.715 3.088l1.43.247s.951-.988.951-2.717c0-1.73-.714-2.718-.714-2.718h-1.071c.119 0 .238.988.119 2.1Zm15.835 23.1c.357-1.606.595-3.706.595-6.547 0-15.565-9.048-25.694-16.668-26.93 0 .742-.12 1.236-.239 1.483 8.573 1.235 14.407 14.453 14.407 24.706 0 2.717-.238 5.435-.595 7.288h2.5Z" fill="#000"/><path fill-rule="evenodd" clip-rule="evenodd" d="M21.577 49.5c.053-.743.176-1.673.448-2.577.844-2.627 2.46-4.672 3.997-6.618 1.636-2.072 3.184-4.032 3.62-6.464.08-.44.122-.896.122-1.37 0-.367-.131-.53-.296-.59a.532.532 0 0 0-.18-.028c-.034.212-.161.417-.36.618a3.445 3.445 0 0 1-.506.408c-.058.04-.118.079-.18.118-.621.391-1.456.777-2.335 1.183-1.355.626-2.815 1.3-3.763 2.12-.892.771-1.536 1.841-2.13 2.828-.834 1.386-1.57 2.607-2.752 2.607-.714 0-1.547-.617-1.547-1.358-.225 0-.45.027-.687.056-.251.03-.517.063-.81.067h-.051C11.786 40.5 10 37.906 10 34.447c0-1.836 1.542-4.42 3.766-8.146l.52-.872c.45-.734.588-1.47.75-2.34.14-.74.296-1.58.679-2.6.39-.406.78-.866 1.196-1.354.47-.554.973-1.144 1.542-1.735a13.94 13.94 0 0 0-.072-.34 15.594 15.594 0 0 1-.404-3.613c0-1.606 0-2.347.119-3.459l.119-.247s2.143-.123 3.81 1.359a11.41 11.41 0 0 1 1.53 1.443 14.928 14.928 0 0 1 1.074 1.377l.015.021h.12l.016-.098c.1-.571.271-1.105.48-1.594.857-2 2.36-3.249 2.36-3.249h.477s1.905 1.976 2.5 4.57c10.597 1.483 19.645 13.218 19.645 28.536 0 5.435-.476 8.894-.476 8.894H21.55s-.022-.386 0-.982c.006-.159.015-.333.028-.518Zm-.028 1.5-1.498.085.08 1.415h30.943l.178-1.295L49.766 51l1.486.205V51.2l.002-.01.005-.036.016-.129a58.25 58.25 0 0 0 .224-2.319 86.54 86.54 0 0 0 .243-6.6c0-15.352-8.842-27.691-19.967-29.859a12.155 12.155 0 0 0-1.406-2.772 13.448 13.448 0 0 0-1.075-1.389A7.128 7.128 0 0 0 29.215 8l-.024-.027-.008-.008-.003-.003-.002-.002L28.098 9l1.08-1.04-.443-.46h-1.656l-.416.346L27.62 9l-.958-1.154-.002.001-.002.002-.004.003-.01.01-.033.027a9 9 0 0 0-.434.408c-.268.27-.628.66-1.003 1.156-.327.432-.677.958-.992 1.566a12.653 12.653 0 0 0-1.2-1.074c-1.078-.944-2.282-1.362-3.183-1.549a7.592 7.592 0 0 0-1.501-.157l-.11.002-.037.001-.013.001H18.13l.085 1.498-.086-1.497-.882.05-.615 1.277-.027.258c-.128 1.191-.128 2.005-.128 3.573v.045c0 1.589.193 2.756.346 3.502a48.01 48.01 0 0 0-1.044 1.202c-.426.5-.787.926-1.144 1.296l-.216.224-.109.29c-.43 1.149-.608 2.105-.747 2.846-.012.068-.024.134-.037.198-.147.78-.259 1.216-.519 1.64l-.005.009-.005.008-.515.864c-1.025 1.716-1.936 3.243-2.612 4.562-.767 1.5-1.37 2.983-1.37 4.36 0 1.97.507 3.796 1.455 5.173.956 1.39 2.42 2.379 4.212 2.379.217 0 .42-.013.6-.029.154.202.325.375.496.517.525.436 1.242.747 2 .747 1.005 0 1.78-.463 2.346-1 .538-.508.97-1.16 1.324-1.732.143-.229.277-.452.407-.666.592-.979 1.09-1.802 1.785-2.402.775-.67 2.022-1.248 3.42-1.897l.52-.241c.228-.107.46-.217.69-.33-.49 1.2-1.31 2.36-2.33 3.67-.185.238-.378.481-.576.73-1.526 1.928-3.32 4.194-4.252 7.098l-.004.013-.004.013c-.344 1.142-.474 2.288-.523 3.125a15.875 15.875 0 0 0-.017 1.429l.001.026v.008l.001.005L21.55 51Zm-.155-31.024c-1.668.408-3.06 1.947-3.06 3.848a1.499 1.499 0 0 0 .083.247c.158.365.435.617.631.617.358 0 .834-.37.834-.617.06-.31.208-.31.476-.31s.655 0 1.19-.308c.84-.387.73-1.002.643-1.487-.025-.135-.047-.259-.047-.366a.716.716 0 0 1 .038-.242.485.485 0 0 1 .081-.143c.095-.115.232-.174.36-.23.186-.079.354-.151.354-.373 0-.083 0-.193-.026-.302-.053-.22-.212-.44-.688-.44a3.625 3.625 0 0 0-.87.106Zm-.718 2.028c-.09.08-.174.166-.252.258.099 0 .17-.006.285-.06a7.303 7.303 0 0 1-.03-.175c0-.008-.002-.015-.003-.023Zm2.273-3.544c.22-.136.523-.306.902-.49.384-.185.848-.383 1.389-.57a3.19 3.19 0 0 1-.167-.481c-.063-.226-.127-.49-.19-.754l-.062.024a13.765 13.765 0 0 0-1.736.831c-.378.213-.682.405-.9.542-.17.108-.29.182-.35.209-.02.008-.033.011-.04.01l.706.978c.001 0 .04-.031.117-.085.075-.052.185-.125.33-.214Zm11.554-.166c6.458 3.883 10.62 14.658 10.62 23.318 0 2.054-.136 4.107-.357 5.788a25.642 25.642 0 0 1-.238 1.5h2.5c.357-1.606.595-3.706.595-6.547 0-12.665-5.991-21.732-12.329-25.336a14.142 14.142 0 0 0-2.847-1.243 11.37 11.37 0 0 0-1.492-.35c0 .74-.12 1.233-.238 1.48v.002l.074.01c.477.074.945.183 1.405.328.797.25 1.567.605 2.307 1.05Zm-3.274 7.053c-.008.147-.02.299-.036.453-.044.586-.15 1.156-.269 1.643-.206.848-.446 1.445-.446 1.445l1.43.247s.053-.055.134-.163c.263-.347.817-1.235.817-2.554 0-.457-.05-.862-.123-1.21-.204-.973-.59-1.508-.59-1.508h-1.072c.06 0 .122.26.15.665a7.825 7.825 0 0 1 .005.982ZM17.08 37.149a.851.851 0 0 0-.48.192.788.788 0 0 0 .257.494c.092.085.191.14.287.172.084.029.166.04.239.04.128 0 .223-.02.273-.034a.689.689 0 0 0 .035-.203.866.866 0 0 0-.309-.496.854.854 0 0 0-.301-.164Zm.614.684-.001-.015.001.015ZM13.81 36.67c-.357 0-.715-.371-.715-1.112 0-.865.596-2.47 1.548-2.47.953 0 .953.864.953 1.358 0 .247-.209.401-.417.556-.208.154-.417.309-.417.556 0 .494-.476 1.112-.952 1.112Zm3.333 1.976c-.714 0-.952-.247-.952-.865 0-.617.833-1.235 1.19-1.235.358 0 .715.247.715.741s-.357 1.36-.953 1.36Z" fill="#BDA581" fill-opacity=".75"/></svg>