<svg width="60" height="60" fill="none" xmlns="http://www.w3.org/2000/svg"><path d="M30.5 8c1.7 0 3 1.7 3 3 0 1.6-1 2.7-2.4 3.2.7 1 2.4 1.7 4.2 2.8 4 2.4 7.4 5 7.4 9.4 0 4-1.3 5.6-2.8 7-.6.6-.2 4.4-.2 7.4 0 1.6-3 2.4-6.3 2.8.3.7 1 1.4 2.5 1.4l7.6-.2c5 0 7.7 2.9 7.7 2.9L48.4 52s-3-2.6-10.6-2.6c-4.2 0-7.2-2-7.7-3.6-.3 1.6-2.7 3.6-7.5 3.6-6.8 0-10.9 2.6-10.9 2.6L9 47.7s2.6-2.9 7.3-2.9l8.1.2c1.4 0 2.2-.8 2.5-1.4-3.4-.4-6.3-1.2-6.3-2.8 0-2.5.3-6.6-.4-7.3-1-1.2-2.7-2.8-2.7-7 0-5.5 4.9-7.9 8-9.8 1.3-.8 2.7-1.5 3.4-2.4-1.1-.5-2.1-1.6-2.1-2.8.2-1.6 2-3.5 3.7-3.5Zm-.4 26.6c2.8 0 5.3.3 7.7 1.5v-1.7a17 17 0 0 0-7.7-1.7c-2.8 0-5.7.8-7.7 1.9V36a19 19 0 0 1 7.7-1.5Zm0 4.2c2.3 0 6 .3 7.7 1v-1.4c-1.8-1-5-1.5-7.7-1.5-2.8 0-6 .6-7.8 1.6V40c1.4-.7 4.9-1.2 7.8-1.2Zm1.4-9.3v-3.2h3.2v-2.5h-3.2v-3.2h-2.6v3.2h-3v2.5h3v3.2h2.6Z" fill="#000"/><path fill-rule="evenodd" clip-rule="evenodd" d="M20.8 41.4c-.2-.2-.2-.4-.2-.6v-2c0-2.3.2-4.8-.4-5.3v-.1c-1.1-1.1-2.7-2.8-2.7-6.9 0-5 3.9-7.3 7-9.2l1-.6a111.1 111.1 0 0 1 2.2-1.3c.5-.4 1-.7 1.2-1.1l-1.2-.8c-.6-.6-.9-1.3-.9-2 .2-1.6 2-3.5 3.7-3.5 1.7 0 3 1.7 3 3a3 3 0 0 1-1.1 2.4l-1.3.8c.3.4.7.7 1.2 1a27.8 27.8 0 0 0 3 1.8c4 2.4 7.4 5 7.4 9.4 0 4-1.3 5.6-2.8 7-.4.4-.3 2.5-.3 4.8v2.6c0 .3 0 .6-.3 1l-.4.2c-.8.6-2.2 1-3.8 1.3l-1.7.3c.2.6.8 1 1.7 1.3h8.5c5 0 7.6 2.8 7.6 2.8L48.4 52s-.3-.3-1-.6c-1.3-.8-4.4-2-9.6-2-3 0-5.3-1-6.6-2.1-.6-.5-1-1-1-1.5-.2.5-.5 1-1 1.5-1.1 1.2-3.3 2.1-6.6 2.1A21.6 21.6 0 0 0 11.7 52L9 47.7s2.6-2.9 7.3-2.9l5.3.1H25.2c1-.2 1.4-.8 1.7-1.3l-1.8-.3a9.7 9.7 0 0 1-3.6-1.2c-.4-.2-.6-.4-.7-.7Zm3-2a28 28 0 0 1 14 .5v-1.5l-.7-.3a20.6 20.6 0 0 0-14.8.5V40l.6-.3.9-.2Zm13.7-5.1a17.2 17.2 0 0 0-15.1.3V36a7.6 7.6 0 0 1 1.8-.7 22.5 22.5 0 0 1 12.9.4l.7.3v-1.7l-.3-.1Zm-16.9 9h-4.3a12.3 12.3 0 0 0-8.4 3.3l1.1 1-1.1-1-.8.9 4.2 6.6 1.3-.8a4.5 4.5 0 0 1 .6-.4l2-.8c1.7-.6 4.2-1.2 7.4-1.2 2.6 0 4.7-.5 6.2-1.4l1.4-1 1.7 1c1.5.9 3.6 1.4 5.9 1.4 3.6 0 6 .6 7.6 1.2a10.5 10.5 0 0 1 2 1l1.4 1.1 4.2-6.7-.7-.8-1.1 1 1-1a4 4 0 0 0-.1-.2l-.5-.4-1.7-1.2c-1.4-.8-3.6-1.6-6.4-1.6h-3.9c.2 0 .4-.2.6-.4a3 3 0 0 0 1-2.1V38l-.1-2a15.9 15.9 0 0 1 0-1.9c.8-.7 1.5-1.5 2.1-2.7.6-1.3 1-3 1-5C44.2 21 40 18 36 15.6a46.2 46.2 0 0 0-1.4-.8l-1-.6c.8-.8 1.4-1.9 1.4-3.2 0-1.1-.5-2.2-1.3-3a4.4 4.4 0 0 0-3.2-1.6A5 5 0 0 0 27 8.1c-.8.8-1.5 2-1.7 3.1V11.5c0 1.1.5 2 1.2 2.9l-1.3.7-.5.2-1 .7c-1.3.8-3 1.8-4.4 3.2a9.8 9.8 0 0 0-3.3 7.3c0 2.4.4 4 1.1 5.3.6 1.2 1.4 2 2 2.6v6.3a3 3 0 0 0 1 2.2l.5.5Zm-1.6-9Zm22.2-.2Zm6.3 19Zm-16-23.6h-2.6v-3.2h-3v-2.5h3v-3.2h2.6v3.2h3.2v2.5h-3.2v3.2Z" fill="#BDA581" fill-opacity=".8"/></svg>