<svg width="60" height="60" fill="none" xmlns="http://www.w3.org/2000/svg"><path d="M10.87 15.3c1.32 0 2.51 1.48 2.51 2.6 0 .86-.6 1.73-1.31 2.22 1.55 2.97 3.59 7.3 6.34 11.62.24-.13.48-.13.72-.25-.12-5.69-.24-11.12-.24-15.2a2.58 2.58 0 0 1-2.16-2.35c0-1.48 1.44-2.84 2.88-2.84 1.31 0 2.5 1.48 2.5 2.6 0 .86-.59 1.73-1.43 2.22a106 106 0 0 0 4.9 14.2c.25 0 .6 0 .85-.11.24-5.32 1.67-11.87 2.15-15.94-.84-.37-1.56-1.36-1.56-2.23 0-1.48 1.44-2.84 2.88-2.84 1.31 0 2.5 1.48 2.5 2.6a2.8 2.8 0 0 1-1.79 2.47c.48 4.2 1.92 10.87 2.28 16.06h.83a96.14 96.14 0 0 0 4.91-14.21c-.72-.5-1.2-1.24-1.2-1.98 0-1.48 1.44-2.84 2.88-2.84 1.31 0 2.5 1.48 2.5 2.6 0 1.35-1.19 2.47-2.38 2.71 0 3.96-.12 9.52-.24 15.2.24 0 .47.13.71.25 2.76-4.33 4.79-8.77 6.35-11.74-.6-.5-.96-1.23-.96-1.85 0-1.49 1.43-2.84 2.87-2.84 1.32 0 2.51 1.48 2.51 2.59 0 1.48-1.55 2.72-2.87 2.72h-.12c-1.43 5.06-2.4 14.08-3.35 17.92-.36 1.48-2.75 3.45-2.75 4.7 0 1.6.24 3.57.24 5.06 0 2.22-5.63 3.58-13.16 3.58-7.06 0-13.16-1.36-13.16-3.7 0-1.74.23-3.59.23-4.95 0-1.24-2.27-2.84-2.63-4.7-.84-3.83-2.03-12.85-3.47-17.91h-.12A2.63 2.63 0 0 1 8 18.27c0-1.49 1.44-2.97 2.87-2.97Zm6.46 25.46c2.4-1.36 7.3-2.48 12.33-2.48 4.9 0 10.05 1.12 12.32 2.35l.72-1.11c-2.4-1.6-7.42-2.97-13.04-2.97-5.75 0-10.53 1.49-13.05 2.97l.72 1.24Zm.96 2.96c1.91-1.11 6.82-2.1 11.25-2.1 4.42 0 9.21.99 11.24 2.1v-1.48C38.51 41 34.8 40 29.54 40c-5.27 0-8.98 1-11.25 2.23v1.48Zm0 3.34c1.91-1.11 6.82-1.98 11.25-1.98 4.42 0 9.21.74 11.24 1.85v-1.48c-2.27-1.23-5.98-2.1-11.24-2.1-5.27 0-8.98.87-11.25 2.1v1.6Z" fill="#000"/><path fill-rule="evenodd" clip-rule="evenodd" d="M16.79 49.15c-.2-.27-.3-.55-.3-.86 0-.91.07-1.87.14-2.76.05-.8.1-1.54.1-2.18 0-.6-.53-1.29-1.12-2.05-.63-.8-1.32-1.69-1.5-2.64-.31-1.4-.66-3.48-1.06-5.8-.69-4.08-1.5-8.9-2.42-12.12h-.12A2.63 2.63 0 0 1 8 18.27c0-1.49 1.44-2.97 2.87-2.97 1.32 0 2.51 1.48 2.51 2.6 0 .86-.6 1.73-1.31 2.22l1.14 2.23c1.2 2.36 2.64 5.2 4.4 8.09a70.44 70.44 0 0 0 .8 1.3c.12-.07.24-.1.36-.13s.24-.06.36-.12v-.2l-.02-.72-.01-.57c-.11-5.14-.21-9.99-.21-13.71a2.58 2.58 0 0 1-2.16-2.35c0-1.48 1.44-2.84 2.88-2.84 1.31 0 2.5 1.48 2.5 2.6 0 .86-.59 1.73-1.43 2.22a103.44 103.44 0 0 0 4.9 14.2c.25 0 .6 0 .85-.11a33.48 33.48 0 0 1 .1-1.53c.24-3.03.78-6.33 1.27-9.29.32-1.9.61-3.67.78-5.12-.84-.37-1.56-1.36-1.56-2.23 0-1.48 1.44-2.84 2.88-2.84 1.31 0 2.5 1.48 2.5 2.6a2.8 2.8 0 0 1-1.79 2.47c.2 1.66.54 3.72.9 5.92a140.98 140.98 0 0 1 1.35 9.76l.03.38h.83l.03-.06.54-1.24a96.17 96.17 0 0 0 4.34-12.91c-.72-.5-1.2-1.24-1.2-1.98 0-1.48 1.44-2.84 2.88-2.84 1.31 0 2.5 1.48 2.5 2.6 0 1.35-1.19 2.47-2.38 2.71 0 3.6-.1 8.55-.21 13.7v.02l-.02.98-.01.5h.03c.23.01.45.13.68.25a51.45 51.45 0 0 0 .8-1.3c1.7-2.8 3.1-5.58 4.26-7.92l1.29-2.52c-.6-.5-.96-1.23-.96-1.85 0-1.49 1.43-2.84 2.87-2.84 1.32 0 2.51 1.48 2.51 2.59 0 1.48-1.55 2.72-2.87 2.72h-.12c-.82 2.9-1.49 7.1-2.09 10.89-.44 2.81-.85 5.4-1.26 7.03-.17.7-.8 1.52-1.42 2.31-.67.88-1.33 1.73-1.33 2.38 0 .82.06 1.74.12 2.63.06.86.12 1.71.12 2.44 0 2.22-5.63 3.58-13.16 3.58-5.76 0-10.88-.9-12.57-2.5-.12-.12-.22-.23-.3-.35Zm1.5-2.1a6.12 6.12 0 0 1 1.23-.54l.27-.1a34.42 34.42 0 0 1 9.75-1.33c3.25 0 6.7.4 9.1 1.05a15.77 15.77 0 0 1 1.5.5c.24.1.45.2.64.3v-1.48c-.49-.27-1.05-.52-1.68-.75-2.27-.82-5.44-1.35-9.56-1.35-4.79 0-8.29.71-10.6 1.77a11.16 11.16 0 0 0-.65.33v1.6Zm20.43-5.71A28.15 28.15 0 0 0 29.54 40c-3.77 0-6.74.51-8.96 1.25-.88.3-1.64.63-2.29.98v1.48l.63-.32a18.44 18.44 0 0 1 2.1-.7 34.31 34.31 0 0 1 17.25.07 18.73 18.73 0 0 1 1.88.64c.23.1.44.2.63.31v-1.48c-.59-.32-1.27-.63-2.06-.9ZM46.79 39a5.4 5.4 0 0 1-.8 1.66c-.27.42-.6.85-.89 1.22L45 42c-.32.43-.58.77-.76 1.07-.12.2-.15.3-.16.32 0 .73.06 1.56.12 2.43v.08c.06.84.12 1.73.12 2.5 0 1.28-.82 2.17-1.65 2.74-.85.58-1.97 1.01-3.22 1.34-2.52.67-5.96 1.01-9.8 1.01-3.6 0-7.03-.35-9.6-1.02a11.18 11.18 0 0 1-3.33-1.37c-.86-.58-1.72-1.5-1.72-2.82 0-.92.06-1.87.12-2.71v-.13c.06-.8.11-1.47.11-2.05a1.56 1.56 0 0 0-.13-.25c-.16-.27-.4-.56-.7-.96l-.03-.03a7.88 7.88 0 0 1-1.74-3.2c-.3-1.43-.67-3.56-1.07-5.9l-.45-2.64c-.51-2.97-1.07-6-1.67-8.34a4.2 4.2 0 0 1-2.94-3.81c0-1.22.57-2.31 1.32-3.08a4.34 4.34 0 0 1 3.05-1.39c1.22 0 2.22.67 2.86 1.37.63.7 1.15 1.7 1.15 2.73 0 .97-.4 1.85-.96 2.53l.65 1.28c.87 1.7 1.84 3.63 2.97 5.64-.07-3.67-.14-7.1-.15-9.99a4.2 4.2 0 0 1-2.16-3.42c0-1.22.59-2.3 1.35-3.05a4.4 4.4 0 0 1 3.03-1.29c1.21 0 2.22.67 2.86 1.37.63.7 1.15 1.69 1.15 2.73 0 1.1-.52 2.07-1.24 2.8.69 2.59 1.8 5.9 2.95 8.96a126.46 126.46 0 0 1 1-6.55c.25-1.5.48-2.9.64-4.12-.27-.23-.5-.5-.7-.78a3.82 3.82 0 0 1-.75-2.17c0-1.22.59-2.3 1.35-3.05A4.4 4.4 0 0 1 29.9 7.5c1.21 0 2.22.67 2.86 1.37.63.7 1.15 1.69 1.15 2.72 0 1.37-.73 2.53-1.69 3.27a169.26 169.26 0 0 0 1.06 6.63c.22 1.38.45 2.8.64 4.21a95.57 95.57 0 0 0 3.03-9.27 3.73 3.73 0 0 1-1.02-2.49c0-1.22.59-2.3 1.35-3.05a4.4 4.4 0 0 1 3.03-1.29c1.21 0 2.21.67 2.86 1.37.63.7 1.15 1.69 1.15 2.73 0 1.72-1.1 3.05-2.4 3.74-.01 2.83-.07 6.31-.15 10 1.06-1.9 2-3.76 2.82-5.42l.86-1.69a3.81 3.81 0 0 1-.66-2.06c0-1.23.58-2.3 1.35-3.05a4.4 4.4 0 0 1 3.02-1.3c1.22 0 2.22.67 2.86 1.38.63.7 1.15 1.68 1.15 2.72 0 1.28-.66 2.34-1.44 3.03-.52.46-1.16.84-1.85 1.03a106.1 106.1 0 0 0-1.57 8.32l-.23 1.45c-.45 2.8-.87 5.46-1.3 7.16Zm-6.34-.63a30.65 30.65 0 0 0-10.8-1.83 30.22 30.22 0 0 0-11.7 2.28 14.47 14.47 0 0 0-1.32.68l-.02.01.72 1.24h.01c.54-.32 1.22-.61 1.99-.88 2.64-.93 6.45-1.6 10.33-1.6 3.75 0 7.64.66 10.28 1.51.8.27 1.49.54 2.02.83l.02.01.72-1.11a10.07 10.07 0 0 0-2.25-1.14Z" fill="#BDA581" fill-opacity=".75"/></svg>