<svg width="60" height="60" fill="none" xmlns="http://www.w3.org/2000/svg"><path d="m41.3 21.2-1 .7v14.2l2.3 2.8c.6.8.7.9.7 1.5v4.7l.7.1c.5.1 1 .6 1 1.4V51H15v-4.3c0-.7.3-1.2 1-1.4h.6v-4.8c0-.6.1-.7.7-1.4l2.2-2.9V22l-1-.7c-.8-.7-2.6-2-2.6-2.6v-5.3c0-1.5 3.5-2.2 5.3-2.6v3.7c1.6-.2 3.4-.5 5.1-.5v-3.8L30 10l3.7.1V14c1.7 0 3.5.3 5 .5v-3.7c2 .4 5.4 1.1 5.4 2.6v5.3c0 .6-1.8 1.9-2.8 2.6Z" fill="#F9F1E4"/><path d="M44 40.3v4.8h.2c1 .2 1.4.6 1.4 1.8V51H14v-4.1c0-1.2.4-1.5 1.2-1.6l.7-.2v-4.8c0-.7.2-.8.8-1.3l2-2.4v-14c-1.5-1.1-3.8-2.7-3.8-3.3v-6c0-1.6 5-2.6 7.4-2.9v3l3-.5v-2.8L30 10l4.7.1V13l2.8.4v-2.9c3.2.4 7.3 1.5 7.3 3v6c0 .5-2.4 2-3.7 3.2v13.7l2 2.5c.5.7.8 1 .8 1.5Zm-.4 9v-2H16v2h27.7ZM20 12.5c-1.2.2-2.2.6-3.1.8V18c2.4-1 7.7-1.5 13-1.5 5 0 10.4.4 13 1.5v-4.4l-3.3-1v2.7c-2.5-.4-4.5-.7-7.2-.7V12c-.8-.2-1.6-.2-2.5-.2-1 0-1.8 0-2.7.2v2.6c-2.7.2-4.7.3-7.2.7v-2.7Zm-2.7 6.8c.5.6 1.5 1.3 2.4 1.8l.7.4a58.6 58.6 0 0 1 19 .1l.7-.5c1.1-.7 2-1.2 2.4-1.8-3.6-.9-8-1.3-12.5-1.3-4.7 0-9.4.4-12.7 1.3Zm24.7 26.2v-4H18v4h24Zm-.5-5.7-1.2-1.5H19.5l-1.2 1.5h23ZM20.7 23v13.6H39V23.2a79.7 79.7 0 0 0-18.3-.1Z" fill="#332007"/></svg>