<svg width="60" height="60" fill="none" xmlns="http://www.w3.org/2000/svg"><path d="M11.76 15.86c1.27 0 2 1.38 2 2.42 0 .8-.57 1.6-1.26 2.06 1.5 2.76 3.86 6.79 6.51 10.8.23-.1.46-.1.7-.22-.12-5.29-.24-10.35-.24-14.14-1.15-.11-2.07-1.26-2.07-2.18 0-1.38 1.38-2.65 2.76-2.65 1.27 0 2.42 1.38 2.42 2.42 0 .8-.58 1.6-1.38 2.07.92 3.67 2.99 9.3 4.72 13.22.23 0 .57 0 .8-.12.23-4.94 1.61-11.03 2.07-14.83-.8-.34-1.5-1.26-1.5-2.07 0-1.38 1.39-2.64 2.77-2.64 1.26 0 2.41 1.38 2.41 2.41 0 1.04-.8 1.96-1.72 2.3.46 3.91 1.84 10.12 2.18 14.95h.81a87.46 87.46 0 0 0 4.72-13.22c-.7-.46-1.15-1.15-1.15-1.84 0-1.38 1.38-2.65 2.76-2.65 1.26 0 2.41 1.38 2.41 2.42 0 1.26-1.15 2.3-2.3 2.53 0 3.67-.11 8.85-.23 14.13.23 0 .46.12.7.23 2.64-4.02 4.6-8.16 6.1-10.92-.58-.45-.75-1.27-.75-1.84a2.6 2.6 0 0 1 2.58-2.52c1.27 0 2.42 1.38 2.42 2.41 0 1.38-1.5 2.53-2.76 2.53h-.12c-1.38 4.71-2.3 13.1-3.22 16.67-.34 1.38-2.65 3.21-2.65 4.36 0 1.5.23 3.34.23 4.72 0 2.07-5.4 3.33-12.65 3.33-6.8 0-12.66-1.26-12.66-3.45 0-1.6.23-3.33.23-4.6 0-1.15-2.19-2.64-2.53-4.36-.8-3.57-1.96-11.96-3.34-16.67h-.11c-1.27 0-2.42-1.15-2.42-2.3a2.97 2.97 0 0 1 2.76-2.76Z" fill="#F9F1E4"/><path d="M10.87 15c1.74 0 3.2 1.75 3.2 3.35 0 .8-.4 1.6-1.06 2.27 1.07 2.13 3.07 5.2 5.34 8.68-.13-4.28-.27-8.68-.27-11.89-1.07-.53-1.87-1.73-1.87-2.67 0-1.73 1.74-3.6 3.6-3.6 1.74 0 3.21 1.73 3.21 3.34 0 1.06-.53 1.86-1.33 2.53.93 3.34 2.53 8.01 4.14 11.75.66-4.54 1.6-10.15 2-13.62a3.2 3.2 0 0 1-1.6-2.67c0-1.73 1.73-3.47 3.74-3.47 1.73 0 3.2 1.74 3.2 3.34 0 1.2-.67 2.14-1.6 2.8.4 3.47 1.33 9.22 2.13 13.9 1.6-3.88 3.2-8.69 4.14-11.9-.66-.66-1.07-1.33-1.07-2.13 0-1.74 1.74-3.6 3.6-3.6 1.75 0 3.21 1.73 3.21 3.33 0 1.34-1.06 2.54-2.27 3.07 0 3.2-.13 7.48-.26 11.76 2.27-3.61 4.4-6.82 5.47-8.95-.4-.54-.67-1.2-.67-1.74 0-1.73 1.74-3.6 3.6-3.6 1.74 0 3.21 1.73 3.21 3.33 0 1.74-1.87 3.34-3.47 3.48-1.2 5.07-2.4 11.75-3.74 16.82-.4 1.74-2.8 3.2-2.8 4.94 0 .8.27 2.8.27 3.88 0 2.53-5.34 4.27-13.36 4.27-7.74 0-13.35-1.6-13.35-4.27 0-1.07.27-3.07.27-3.88 0-1.73-2.4-3.2-2.94-5.2-1.2-4.95-2.53-11.49-3.6-16.56C8.34 21.82 7 20.35 7 19.02 7.27 16.88 9 15 10.87 15Zm-.4 4.95c.67 0 1.74-.67 1.74-1.47 0-.67-.67-1.33-1.34-1.33-.8 0-1.73.8-1.73 1.73 0 .4.66 1.07 1.33 1.07Zm4.27 14.02c1.07-.67 2.14-1.33 3.34-1.73-2.13-3.48-4.4-6.81-5.87-9.35.8 3.2 1.73 7.74 2.53 11.08Zm28.04 5.61c.4-.67.8-1.33 1.07-2.27.13-.4.27-.93.4-1.47-4.14-2.94-10.01-3.74-14.69-3.74-4.94 0-11.08 1.07-14.55 3.47.13.4.27.67.27 1.07.27 1.2.8 2 1.47 2.8 2.67-1.6 7.34-3.06 12.95-3.06 5.74 0 10.55 1.6 13.08 3.2Zm-1.73 2.4c.13-.4.4-.66.66-1.06-2.4-1.47-7.34-2.67-12.01-2.67s-9.48 1.06-12.02 2.53c.27.4.54.67.67 1.2 2.27-1.2 6-2.13 11.35-2.13 5.34 0 9.08 1.07 11.35 2.13Zm-21.5-26.04h.4c.67-.13 1.34-.66 1.34-1.33s-.54-1.34-1.34-1.34-1.73.8-1.73 1.74c0 .4.66.93 1.33.93ZM29.7 49.46c5.47 0 11.08-.93 11.08-2.27 0-1.2-5.74-2.13-11.08-2.13-5.08 0-11.08.93-11.08 2.13 0 1.47 6 2.27 11.08 2.27Zm11.08-4.4v-1.47c-2.14-1.07-6.8-1.87-11.08-1.87-4.27 0-8.95.8-11.08 1.87v1.33c2.27-1.07 5.87-1.73 11.08-1.73 5.07 0 8.81.8 11.08 1.87ZM20.35 31.3c1.34-.4 2.67-.67 4.14-.8a76.79 76.79 0 0 1-4.4-12.42c0 3.74.26 8.68.26 13.22Zm11.62-1.07c-.67-5.2-1.6-10.68-2.14-14.29-.53 3.61-1.47 9.22-2.13 14.3h4.27Zm-2.4-16.56c.66 0 1.73-.66 1.73-1.46 0-.67-.53-1.34-1.33-1.34s-1.74.8-1.74 1.6c0 .54.67 1.2 1.33 1.2Zm9.74 17.9c0-4.8.27-9.75.4-13.49-1.07 3.6-2.8 8.68-4.54 12.42 1.34.4 2.8.67 4.14 1.07Zm.67-15.63h.27c.66 0 1.73-.66 1.73-1.46 0-.67-.53-1.34-1.33-1.34s-1.74.8-1.74 1.74c-.13.4.4.93 1.07 1.06Zm4.67 18.17c.8-3.48 1.74-7.75 2.54-11.09-1.47 2.54-3.6 5.74-5.74 9.22 1.33.66 2.27 1.2 3.2 1.87Zm4.54-14.16c.67 0 1.74-.67 1.74-1.47 0-.67-.67-1.33-1.34-1.33-.8 0-1.73.8-1.73 1.73 0 .4.66 1.07 1.33 1.07Z" fill="#332007"/></svg>