<svg width="60" height="60" fill="none" xmlns="http://www.w3.org/2000/svg"><path d="M25.86 12h3.54V9.36h1.82v2.76h2.69v1.52h-2.69v4.44c1.99.48 3.62 1.63 3.62 4.38 0 .6-.69 2.07-.8 2.55a11.39 11.39 0 0 1 7.53-2.88c5.37 0 8.43 3.2 8.43 7.16 0 6.35-4.43 9.35-6.53 11.26-.23.24-.23.48-.23.84 0 1.56.11 4.56.11 6 0 2.51-6.03 3.61-13.37 3.61-7.47 0-13.22-1.1-13.22-3.62 0-1.55.12-4.43.12-5.99 0-.48 0-.6-.23-.84-2.57-2.03-6.65-4.9-6.65-11.38 0-3.95 3.01-7.04 8.38-7.04 2.68 0 5.5 1.66 7.48 3.46-.15-.13-.36-2.86-.36-3.46 0-2.76 1.91-3.45 3.9-4.05v-4.44h-3.54V12Z" fill="#F9F1E4"/><path d="M30.15 52c-8.18 0-14.05-1.77-14.05-4.37 0-1.5.13-4.37.13-5.46 0-.82 0-1.23-.27-1.5C13.23 37.94 9 35.07 9 29.07c0-4.78 3.96-8.2 8.87-8.2 3.82 0 6.14 1.64 7.5 3-.13-.4-.4-1.08-.4-1.77 0-2.45 1.36-4.64 3.82-5.05v-2.59h-3v-2.73h3V9h2.73v2.87h2.87v2.73h-2.87v2.45c2.46.55 3.82 2.73 3.82 5.05 0 .69-.14 1.37-.4 1.78a11.7 11.7 0 0 1 7.5-2.87c4.91 0 8.87 3.55 8.87 8.2 0 6.27-4.1 9.14-6.96 11.73-.41.41-.27.82-.27 1.5 0 1.23.13 4.1.13 5.6.14 1.91-4.91 3.96-14.06 3.96ZM16.23 38.76c2.32-1.5 7.92-3.14 13.1-3.28-.4-7.23-5.18-12.15-11.46-12.15-4.23 0-6.69 2.87-6.69 6.28 0 3.96 2.73 6.83 5.05 9.15Zm25.94 2.46c.13-.55.4-.96.68-1.23-2.32-1.23-7.78-2.46-12.7-2.46-4.9 0-10.37 1.23-12.69 2.46.27.27.55.68.68 1.09 2.46-1.23 6.42-2.05 12.01-2.05 5.74 0 9.7.96 12.02 2.19Zm-.14 3.4v-1.5c-2.19-1.09-7.23-1.9-11.74-1.9-4.64 0-9.55.81-11.74 1.9 0 .55 0 .96-.13 1.5 2.18-1.08 6.55-1.77 11.87-1.77 5.46 0 9.28.82 11.74 1.78Zm-23.2 3.42c1.77 1.23 6.96 1.78 11.32 1.78 4.1 0 9.15-.55 11.06-1.64.4-.28.68-.55.68-.96 0-.54-.95-.95-1.64-1.09a44.45 44.45 0 0 0-10.1-1.23c-4.23 0-10.23.68-11.6 1.78-.13.13-.27.4-.27.54 0 .41.27.55.55.82Zm14.46-25.66c0-1.64-.95-3.28-3.14-3.28-2.18 0-3.13 1.64-3.13 3.28 0 2.05 1.36 3.27 3.13 7.78 1.78-4.5 3.14-5.73 3.14-7.78Zm-2.18 13.1c5.32.14 10.78 1.78 12.97 3.28 2.32-2.32 5.05-5.05 5.05-9.28 0-3.14-2.46-6.28-6.7-6.28-6.13.13-10.91 5.05-11.32 12.28Z" fill="#332007"/></svg>